#!OML:ASF F:\VICON\USERDATA\INSTALL\rory3\rory3.ASF
:FULLY-SPECIFIED
:DEGREES
1048
root 0.859987 15.4272 3.85547 10.2648 -49.6354 13.898
lowerback 4.90876 8.83979 7.07909
upperback 5.52682 12.0011 -4.04455
thorax 5.47673 6.44723 -7.94431
lowerneck -2.04033 -4.91963 -4.86443
upperneck 51.8492 -13.499 9.93591
head 24.7628 -5.31168 4.22532
rclavicle -5.725e-014 8.42847e-014
rhumerus -47.4639 55.311 -130.644
rradius 90.7126
rwrist -28.3213
rhand 27.0579 -27.3043
rfingers 7.12502
rthumb 51.0435 -47.9614
lclavicle -5.725e-014 8.42847e-014
lhumerus -12.5081 -77.7564 92.8318
lradius 100.368
lwrist 28.8646
lhand -7.74053 -22.3105
lfingers 7.12502
lthumb 18.1585 6.86187
rfemur -67.234 -8.62617 10.1165
rtibia 87.4474
rfoot -11.8931 -13.3415
rtoes -28.9823
lfemur -57.1925 -22.8098 -28.806
ltibia 61.2929
lfoot -22.4741 6.68073
ltoes 8.06463
1049
root 0.853401 15.4296 3.83947 10.2701 -49.8347 13.8524
lowerback 4.97262 8.91725 6.97744
upperback 5.49248 12.104 -4.03096
thorax 5.39838 6.48927 -7.8831
lowerneck -1.92892 -4.91021 -5.05269
upperneck 51.829 -13.5367 10.1329
head 24.7955 -5.35824 4.38156
rclavicle -1.31198e-013 -1.11319e-014
rhumerus -47.5315 55.1571 -130.676
rradius 90.7541
rwrist -28.2198
rhand 27.2529 -27.4749
rfingers 7.12502
rthumb 51.2211 -48.0321
lclavicle -1.31198e-013 -1.11319e-014
lhumerus -12.556 -77.7762 92.8853
lradius 100.372
lwrist 29.0828
lhand -7.1651 -22.0953
lfingers 7.12502
lthumb 18.712 7.02472
rfemur -67.2568 -8.31869 10.1662
rtibia 87.4325
rfoot -11.8445 -13.4184
rtoes -29.1449
lfemur -57.2387 -22.6864 -28.7079
ltibia 61.3529
lfoot -22.5141 6.77472
ltoes 8.11216
1050
root 0.851255 15.4267 3.82363 10.324 -49.8304 13.872
lowerback 4.93589 8.95254 6.89699
upperback 5.48156 12.1478 -4.03948
thorax 5.39951 6.50719 -7.84114
lowerneck -1.91122 -4.94639 -5.01996
upperneck 51.7719 -13.6032 10.1693
head 24.7406 -5.37171 4.37758
rclavicle 5.96354e-014 -2.22639e-014
rhumerus -47.1308 55.0988 -130.298
rradius 90.7531
rwrist -28.3306
rhand 27.3096 -27.5224
rfingers 7.12502
rthumb 51.2727 -48.0504
lclavicle 5.96354e-014 -2.22639e-014
lhumerus -12.2909 -77.8757 92.6469
lradius 100.375
lwrist 29.0654
lhand -7.35208 -21.7445
lfingers 7.12502
lthumb 18.5322 7.39273
rfemur -67.39 -8.23774 10.1785
rtibia 87.456
rfoot -12.0918 -13.2863
rtoes -28.1717
lfemur -57.4023 -22.6411 -28.6304
ltibia 61.4071
lfoot -22.5102 6.67504
ltoes 8.33141
1051
root 0.849499 15.4281 3.81631 10.4007 -49.8959 13.8266
lowerback 4.89019 9.0384 6.88387
upperback 5.4712 12.26 -4.01948
thorax 5.42851 6.56229 -7.79762
lowerneck -1.89816 -5.03124 -4.89197
upperneck 51.8082 -13.6804 9.98615
head 24.7188 -5.38127 4.22699
rclavicle -8.98507e-014 -2.54444e-014
rhumerus -47.0876 54.937 -130.168
rradius 90.7578
rwrist -28.3599
rhand 26.8927 -27.4513
rfingers 7.12502
rthumb 50.8929 -48.1923
lclavicle -8.98507e-014 -2.54444e-014
lhumerus -11.982 -78.1336 92.409
lradius 100.447
lwrist 29.1181
lhand -7.28268 -21.2006
lfingers 7.12502
lthumb 18.5989 7.93021
rfemur -67.4619 -8.15397 10.2053
rtibia 87.4353
rfoot -12.3033 -13.1409
rtoes -27.3874
lfemur -57.5203 -22.5741 -28.4606
ltibia 61.4845
lfoot -22.6231 6.26466
ltoes 9.11713
1052
root 0.846428 15.4327 3.80844 10.5142 -49.9694 13.6898
lowerback 4.88973 9.0956 6.94612
upperback 5.42336 12.3374 -3.9725
thorax 5.39526 6.59932 -7.77952
lowerneck -1.82566 -5.06103 -4.88759
upperneck 51.9223 -13.6707 9.81971
head 24.7704 -5.38887 4.14115
rclavicle 1.19271e-014 1.03368e-013
rhumerus -47.3179 54.828 -130.273
rradius 90.7521
rwrist -28.3605
rhand 26.4317 -27.1848
rfingers 7.12502
rthumb 50.4723 -48.156
lclavicle 1.19271e-014 1.03368e-013
lhumerus -12.0844 -78.219 92.5926
lradius 100.473
lwrist 29.2778
lhand -6.3783 -20.8597
lfingers 7.12502
lthumb 19.4687 8.1856
rfemur -67.4799 -8.10703 10.4012
rtibia 87.3571
rfoot -11.8345 -13.5125
rtoes -28.8601
lfemur -57.6166 -22.5349 -28.1358
ltibia 61.5641
lfoot -22.8004 5.54764
ltoes 10.209
